/* XPM */
/* $Id: snake-head.xpm,v 1.4 1999/08/08 15:50:14 root Exp $ */
/* Copyright (c) Mark Summerfield 1998/9. All Rights Reserved. */
/* May be used/distributed under the GPL. */

static char * snake_head_xpm[] = {
"20 20 6 1",
" 	c None",
".	c #5CED23",
"+	c #462DE5",
"@	c #B556B7",
"#	c #622689",
"$	c #25187A",
"       ......       ",
"     ....+..@..     ",
"    ..@#..+.....    ",
"   ...###+..#....   ",
"  ..+..#..+###.+..  ",
" ..#.+...+..#.+.#.. ",
" .###.+...+..+.###. ",
".@.#...+.+..+.@.#@..",
"........+$++........",
"..+.+.+.+##$+.+.+.+.",
".+.+.+.+$##+.+.+.+..",
"........++$+....#...",
".@.#@..+..+.+..###..",
" .###.+..+...+..#.. ",
" ..#.+.#..+.#.+.... ",
"  ..+.###+.###.+..  ",
"   ....#..+.#@...   ",
"    .....+......    ",
"     .@...+....     ",
"       ......       "};
