/* XPM */
/* $Id: snake-icon-16x16.xpm,v 1.1 1999/02/21 19:44:34 root Exp root $ */
static char * snake_icon_16x16_xpm[] = {
"16 16 3 1",
"  c None",
"! c #00AF00",
"# c black",
"                ",
"                ",
"    !!!!!!!!!!  ",
"   !!!!!!!!!#!  ",
"  !!!    !!!#!  ",
"  !!     !##!!  ",
"  !!     !!!!!  ",
"  !!!           ",
"   !!!!!!!!!    ",
"    !!!!!!!!!   ",
"           !!!  ",
"            !!  ",
"  !!!!!!!!!!!!  ",
"  !!!!!!!!!!!   ",
"                ",
"                ",
};
