/* XPM */
/* $Id: snake-food-3.xpm,v 1.3 1999/01/07 16:32:20 root Exp $ */
/* Copyright (c) Mark Summerfield 1998/9. All Rights Reserved. */
/* May be used/distributed under the same terms as Perl. */

static char * snake_food_3_xpm[] = {
"20 20 6 1",
" 	c None",
".	c #CC1414",
"+	c #A5A9EF",
"@	c #1926B7",
"#	c #2334EF",
"$	c #4755EF",
"          ..        ",
"         +..        ",
"        +..++       ",
"       +@..++       ",
"      +##.+##+      ",
"     ++#..@@#+      ",
"     #@@++@@+++     ",
"    +#@@$+##$$+     ",
"    ++#$$+##$$#+    ",
"   #$$###@@+@@#+    ",
"   #$@@+$@@$@@+     ",
"  +++@@+$$+$$++     ",
"  ++##+#@@+##+##    ",
"   +#$$#@@$$#$$#    ",
"   ++$$++#$@@$$     ",
"    +##@@##@@#+     ",
"     #$@@$$+##      ",
"     +$$#$$#++      ",
"      +##+##        ",
"        ++          "};
