/* XPM */
/* $Id: snake-food-2.xpm,v 1.3 1999/08/08 15:50:14 root Exp root $ */
/* Copyright (c) Mark Summerfield 1998/9. All Rights Reserved. */
/* May be used/distributed under the GPL. */

static char * snake_food_2_xpm[] = {
"20 20 3 1",
" 	c None",
".	c #EFE413",
"+	c #070705",
"++                  ",
"+++                 ",
"++++                ",
" +++                ",
" +..+               ",
"  +...+             ",
"  +....+            ",
"   +..+..+          ",
"    +..+..+         ",
"    +...+...+       ",
"     +...+.....+    ",
"      +.....+...+   ",
"       +..+..+....+ ",
"        +...+..+...+",
"         +...+..+..+",
"           +......+ ",
"             ++++   ",
"                    ",
"                    ",
"                    "};
