/* XPM */
/* $Id: snake-food-1.xpm,v 1.2 1999/01/07 16:32:20 root Exp $ */
/* Copyright (c) Mark Summerfield 1998/9. All Rights Reserved. */
/* May be used/distributed under the same terms as Perl. */

static char * snake_food_xpm[] = {
"20 20 7 1",
" 	c None",
".	c #1FC64C",
"+	c #13A036",
"@	c #9B4D04",
"#	c #EF1A13",
"$	c #F0F0F0",
"%	c #FFFFFF",
"                    ",
"    .          .    ",
"   ....        ...  ",
"  ..+...     ...+.  ",
"   ..+.    @ ..+... ",
"   ...+.  @@ .+..   ",
"    . .+ @@ .+...   ",
"        +@#@+.      ",
"     ####@#####     ",
"    ############    ",
"    #############   ",
"   ########$######  ",
"   ########%%$####  ",
"   #######$%%#####  ",
"   ######%#%$#####  ",
"   ##########%####  ",
"    #############   ",
"     ###########    ",
"       #######      ",
"                    "};
